<?xml version="1.0" standalone="no"?>
<!DOCTYPE svg PUBLIC "-//W3C//DTD SVG 20010904//EN"
 "http://www.w3.org/TR/2001/REC-SVG-20010904/DTD/svg10.dtd">
<svg version="1.0" xmlns="http://www.w3.org/2000/svg"
 width="500.000000pt" height="500.000000pt" viewBox="0 0 500.000000 500.000000"
 preserveAspectRatio="xMidYMid meet">

<g transform="translate(0.000000,500.000000) scale(0.100000,-0.100000)"
fill="#000000" stroke="none">
<path d="M744 3177 c-70 -41 -125 -123 -126 -189 -1 -75 30 -79 56 -5 22 62
79 143 107 152 36 12 42 -8 23 -76 -10 -35 -17 -66 -15 -68 1 -2 -1 -7 -6 -10
-17 -11 -168 -380 -178 -433 -9 -49 0 -84 24 -91 29 -7 38 3 66 78 31 81 39
95 153 268 107 162 208 274 228 254 3 -2 -34 -80 -81 -173 -47 -93 -93 -199
-102 -237 -16 -61 -16 -70 -3 -95 15 -25 60 -44 60 -25 0 37 176 296 259 381
79 81 81 47 7 -109 -88 -185 -126 -328 -107 -397 14 -46 41 -89 67 -103 35
-18 93 -4 128 30 37 37 30 46 -21 31 -21 -7 -51 -10 -67 -8 -43 5 -53 27 -37
89 14 55 101 277 145 369 32 68 34 127 5 164 -26 33 -63 34 -110 2 -39 -27
-127 -133 -178 -214 -19 -29 -35 -51 -37 -49 -5 5 33 91 93 214 35 72 44 99
38 120 -9 39 -34 63 -64 63 -30 0 -121 -93 -203 -207 -29 -40 -53 -71 -54 -70
-2 1 13 49 33 107 54 163 38 250 -46 250 -20 -1 -45 -6 -57 -13z"/>
<path d="M2605 3171 c-48 -30 -73 -58 -94 -107 -21 -47 -26 -89 -15 -118 12
-30 30 -16 47 37 30 92 115 182 144 153 11 -11 -30 -131 -120 -346 -88 -212
-104 -262 -93 -305 5 -19 13 -25 35 -25 26 0 30 6 59 80 51 129 228 397 317
479 75 69 78 48 9 -79 -75 -140 -114 -228 -131 -293 -16 -61 -16 -70 -3 -95
29 -50 45 -40 106 65 32 53 83 131 115 173 145 192 202 215 123 50 -144 -300
-162 -434 -73 -529 32 -34 99 -25 142 18 38 37 32 46 -20 31 -49 -15 -93 -10
-107 12 -18 30 35 191 136 411 34 74 40 96 35 133 -9 85 -62 107 -134 55 -46
-34 -91 -87 -158 -189 -27 -40 -50 -71 -52 -69 -5 6 77 188 106 232 47 74 26
165 -38 165 -30 0 -121 -93 -203 -207 -29 -40 -53 -71 -55 -70 -1 2 13 49 32
106 46 133 48 187 7 234 -20 23 -79 22 -117 -2z"/>
<path d="M4102 3128 c-24 -17 -47 -52 -87 -133 -29 -60 -61 -135 -70 -165 -24
-75 -24 -75 -55 -45 -16 15 -40 28 -53 28 -29 0 -71 -29 -88 -60 -7 -12 -15
-20 -19 -18 -3 2 -34 -36 -68 -84 -67 -94 -98 -128 -109 -118 -10 11 18 149
41 195 15 33 18 47 10 60 -15 23 -58 27 -78 6 -19 -19 -18 -19 -40 23 -21 43
-47 49 -94 23 -86 -48 -153 -242 -106 -308 35 -51 100 -13 174 103 20 32 29
41 25 25 -23 -92 -14 -152 27 -183 23 -17 28 -18 54 -4 26 14 80 76 113 132
11 17 12 15 7 -18 -6 -48 6 -81 38 -103 24 -15 28 -15 68 9 24 14 52 34 62 46
11 12 22 21 25 21 3 0 6 -24 7 -54 1 -70 23 -106 65 -106 35 0 58 22 135 132
30 42 74 98 99 125 l45 48 -5 -45 c-4 -35 -3 -41 5 -25 9 18 10 17 5 -5 -2
-14 -5 -32 -6 -40 0 -10 -3 -8 -9 5 -7 15 -9 10 -9 -23 -1 -37 4 -49 33 -78
36 -36 71 -43 107 -21 21 12 158 176 194 230 13 20 15 31 7 39 -7 7 -28 -13
-70 -69 -70 -95 -92 -120 -129 -145 -61 -40 -74 -19 -52 81 9 41 15 51 39 59
39 14 110 81 126 119 24 57 -2 93 -67 93 -53 0 -90 -30 -134 -110 -11 -20 -26
-35 -33 -32 -20 6 -39 -14 -144 -156 -59 -78 -103 -130 -110 -126 -13 8 -5
148 12 205 5 20 39 74 74 120 95 124 153 218 167 270 11 41 10 50 -4 73 -23
34 -78 36 -125 4z m88 -59 c0 -16 -9 -49 -21 -72 -20 -40 -148 -237 -154 -237
-4 0 31 109 54 168 45 113 93 188 112 176 5 -3 9 -19 9 -35z m232 -231 c9 -26
-5 -57 -43 -94 -21 -21 -41 -35 -45 -32 -3 3 5 26 17 50 43 83 62 104 71 76z
m-955 -65 c11 -42 7 -49 -60 -141 -21 -29 -43 -52 -49 -52 -24 0 27 172 64
218 19 22 35 13 45 -25z m428 -36 c12 -19 13 -34 6 -72 -8 -41 -18 -57 -62
-97 -56 -51 -79 -60 -79 -30 0 30 24 102 55 165 31 63 54 73 80 34z"/>
<path d="M1522 2842 c-84 -45 -152 -244 -106 -310 35 -51 102 -12 173 103 30
49 31 49 23 15 -4 -19 -7 -59 -6 -89 1 -46 5 -58 28 -78 15 -12 34 -23 42 -23
25 0 90 75 136 156 53 95 60 112 48 119 -5 3 -34 -33 -65 -79 -60 -89 -101
-134 -112 -123 -10 11 15 135 39 189 22 52 20 71 -10 87 -16 8 -25 6 -45 -9
-30 -24 -37 -25 -37 -6 0 18 -46 66 -62 66 -7 -1 -28 -9 -46 -18z m78 -72 c6
-38 0 -51 -63 -137 -43 -58 -57 -65 -57 -29 0 27 44 150 66 184 22 33 48 24
54 -18z"/>
<path d="M1884 2815 c-34 -52 -8 -115 47 -115 l28 0 -36 -77 c-43 -94 -48
-152 -16 -184 32 -32 68 -18 138 54 61 62 150 187 157 219 8 42 -24 13 -107
-96 -84 -109 -119 -145 -131 -133 -3 3 15 56 40 119 41 102 43 114 29 126 -9
6 -31 12 -47 12 -17 0 -37 4 -45 9 -12 8 -12 13 2 35 26 39 22 56 -13 56 -21
0 -35 -8 -46 -25z"/>
</g>
</svg>
